<?xml version="1.0" encoding="UTF-8"?>
<!DOCTYPE svg PUBLIC "-//W3C//DTD SVG 1.1//EN" "http://www.w3.org/Graphics/SVG/1.1/DTD/svg11.dtd">
<!-- Creator: CorelDRAW X8 -->
<svg xmlns="http://www.w3.org/2000/svg" xml:space="preserve" width="1899px" height="1459px" version="1.1" style="shape-rendering:geometricPrecision; text-rendering:geometricPrecision; image-rendering:optimizeQuality; fill-rule:evenodd; clip-rule:evenodd"
viewBox="0 0 2255 1733"
 xmlns:xlink="http://www.w3.org/1999/xlink">
 <defs>
  <style type="text/css">
   <![CDATA[
    .fil0 {fill:#766458}
    .fil1 {fill:#81B3D3}
    .fil2 {fill:white}
   ]]>
  </style>
 </defs>
 <g id="Слой_x0020_1">
  <metadata id="CorelCorpID_0Corel-Layer"/>
  <path class="fil0" d="M749 276l-14 24 -13 0 -5 7 14 0 -30 52c-6,11 -2,20 10,20 9,0 19,-6 28,-15 0,19 26,22 43,3l3 0c9,0 23,-6 31,-15 -1,-2 -4,-4 -6,-5l-1 1c-7,8 -15,11 -22,11l13 -24c9,-15 1,-30 -13,-30 -11,0 -20,5 -29,20l-8 12 -5 11 -1 1c-11,12 -22,22 -28,22 -4,0 -5,-2 -2,-8l33 -55 12 0 3 -8 -12 0 14 -24 -15 0zm37 39c5,0 7,6 2,15l-11 18 0 0c-5,0 -9,4 -9,9 0,2 0,3 1,5l0 0c-7,12 -24,10 -15,-5l11 -20 8 -11c4,-8 10,-11 13,-11zm109 -39l-14 24 -13 0 -5 7 14 0 -31 52c-6,11 -2,20 11,20 6,0 12,-3 19,-8l-4 7 15 0 22 -39c23,-29 34,-25 27,-14l-19 33c-7,11 -2,21 10,21 9,0 19,-7 28,-16 1,9 9,16 21,16 16,0 33,-13 46,-27 -1,-2 -4,-5 -6,-5l-1 1c-11,12 -25,22 -35,22 -9,0 -15,-5 -8,-18l2 -2c9,4 27,2 39,-17l2 -3c8,-14 0,-24 -12,-24 -12,0 -22,6 -28,17l-15 24 -1 1c-11,13 -21,23 -27,23 -4,0 -5,-3 -2,-8l21 -37c7,-12 1,-20 -7,-20 -7,0 -14,4 -21,12l24 -41 -15 0 -42 71 -1 1c-11,12 -21,22 -27,22 -4,0 -5,-2 -2,-8l32 -55 13 0 4 -7 -12 0 13 -24 -15 -1zm105 41c5,-1 7,4 2,13l-2 3c-7,12 -16,12 -22,10l10 -17c3,-6 8,-9 12,-9zm219 -27c-9,7 -10,16 -4,23l1 1c-6,10 -15,22 -25,33l-1 1c-7,8 -15,11 -23,11l14 -24c9,-15 1,-30 -13,-30 -12,0 -21,5 -29,20l-8 12 -6 11 -1 1c-12,14 -22,23 -34,28l33 -56 -9 0c0,-6 -6,-15 -15,-15 -8,0 -20,7 -26,17l-21 36c-6,11 -2,20 11,20 4,0 9,-2 14,-5l-4 7c-20,6 -33,15 -33,26 0,14 22,17 33,-1l11 -20c12,-3 24,-10 36,-22 0,19 26,23 42,3l4 0c9,0 22,-6 30,-15 7,-8 13,-16 25,-31l2 2c2,3 2,6 1,8l-16 28c-6,11 -2,20 11,20 7,0 15,-5 23,-11 0,6 5,11 13,11 4,0 10,-2 14,-5l-4 7c-20,6 -32,15 -32,26 0,14 22,17 32,-1l12 -20c12,-4 24,-11 36,-22 1,9 9,15 21,15 12,0 24,-7 34,-15 0,19 26,23 43,3l3 0c5,0 11,-2 17,-5 -4,10 -1,17 8,17 9,0 18,-7 25,-14 -1,8 3,14 13,14 12,0 26,-12 39,-27 8,-10 16,-20 21,-26 -6,15 -3,43 -17,43 -5,0 -7,-6 -7,-6l-9 5c0,0 3,12 16,12 2,0 3,0 4,-1l1 0c15,-2 30,-13 41,-26 -1,-3 -3,-5 -5,-5l-1 1c-6,6 -12,11 -18,16 5,-14 4,-36 13,-55l-12 -6c-5,9 -19,28 -33,43l-1 1c-10,13 -21,23 -27,23 -4,0 -5,-3 -2,-8l32 -56 -15 0 -27 46c-11,11 -20,16 -22,15 -4,-1 0,-7 2,-10l29 -51 -15 0 -23 40 -1 1c-7,8 -15,11 -23,11l14 -24c9,-15 0,-30 -13,-30 -12,0 -21,5 -30,20l-7 12 -6 11 -1 1c-11,12 -25,22 -35,22 -9,0 -15,-5 -8,-18l2 -2c9,4 27,2 39,-17l2 -3c8,-14 0,-24 -12,-24 -12,0 -22,6 -28,17l-15 24 -1 1c-12,14 -22,23 -34,28l33 -56 -9 0c0,-6 -6,-14 -15,-14 -8,0 -20,6 -26,17l-14 24 -1 1c-11,12 -22,22 -28,22 -3,0 -5,-2 -1,-8l14 -26c5,-8 3,-14 -2,-19l-8 -10c-2,-3 -2,-6 1,-9l-9 -9zm-51 25c5,0 7,6 2,15l-11 18 -1 0c-5,0 -9,4 -9,9 0,2 1,3 2,5l0 0c-7,12 -24,10 -15,-5l11 -20 7 -11c5,-8 10,-11 14,-11zm248 0c5,0 7,6 2,15l-11 18 -1 0c-5,0 -9,4 -9,9 0,2 1,3 2,5l0 0c-7,12 -24,10 -16,-5l12 -20 7 -11c4,-8 10,-11 14,-11zm-58 2c5,-1 7,4 2,13l-2 3c-7,12 -16,12 -22,10l9 -17c4,-6 9,-9 13,-9zm-259 1c5,0 8,4 4,12l-11 19c-9,15 -19,22 -25,22 -3,0 -4,-3 -1,-8l21 -36c3,-6 8,-9 12,-9zm192 0c5,0 9,4 4,12l-11 19c-9,15 -19,22 -24,22 -4,0 -5,-3 -2,-8l21 -36c3,-6 8,-9 12,-9zm-224 73l-6 12c-3,6 -9,5 -9,1 0,-4 4,-8 15,-13zm193 0l-7 12c-3,6 -9,5 -9,1 1,-4 4,-8 16,-13zm-764 -57l142 0 0 9 -142 0 0 -9zm1121 0l143 0 0 9 -143 0 0 -9z"/>
  <path class="fil1" d="M1592 183l0 38 -103 0 0 -221 103 0 0 38 -65 0 0 53 52 0 0 38 -52 0 0 54 65 0zm-162 -183l37 0 0 221 -37 0 0 -109 -15 57 -37 0 -14 -57 0 109 -38 0 0 -221 38 0 33 107 33 -107zm-158 38l-27 0 0 145 27 0 0 -145zm15 -38c12,0 23,10 23,23l0 175c0,13 -11,23 -23,23l-57 0c-12,0 -23,-11 -23,-23l0 -175c0,-13 11,-23 23,-23l57 0zm-139 140l38 -9 0 67c0,13 -11,23 -23,23l-56 0c-13,0 -24,-11 -24,-23l0 -175c0,-13 11,-23 24,-23l56 0c12,0 23,10 23,23l0 45 -38 9 0 -39 -27 0 0 145 27 0 0 -43zm-83 43l0 38 -90 0 0 -221 38 0 0 183 52 0zm-106 0l0 38 -103 0 0 -221 103 0 0 38 -65 0 0 53 52 0 0 38 -52 0 0 54 65 0zm-159 -183l38 0 -6 221 -72 0 -10 -91 -10 91 -72 0 -5 -221 38 0 3 183 4 0 24 -183 37 0 24 183 4 0 3 -183z"/>
  <path class="fil2" d="M1879 1056l125 -365 125 0 126 365 -99 0 -19 -66 -141 0 -19 66 -98 0zm176 -257l-37 121 99 0 -37 -121c-2,-6 -4,-12 -6,-18 -1,-6 -3,-12 -4,-19 -1,-2 -1,-4 -1,-6 -1,-3 -1,-5 -1,-7 -1,2 -1,4 -2,7 0,2 -1,4 -1,6 0,1 0,2 0,3 0,0 0,1 -1,1 -1,6 -2,12 -4,17 -2,5 -4,10 -5,16zm-581 257l0 -365 96 0 138 187c3,6 7,12 10,18 3,5 7,11 10,17l6 15c3,5 5,10 7,14 0,-3 -1,-7 -1,-11 -1,-4 -1,-8 -1,-12 -1,-8 -2,-16 -2,-24 0,-8 0,-16 0,-25l0 -179 96 0 0 366 -96 0 -139 -189c-4,-5 -7,-10 -11,-16 -3,-7 -7,-14 -10,-21 -2,-5 -4,-9 -7,-14 -1,-4 -3,-9 -5,-14 2,12 3,24 4,36 1,13 1,25 1,37l0 180 -96 0zm-435 -271c18,-33 42,-57 74,-75 31,-17 64,-25 98,-25 4,0 9,0 14,0 5,1 10,1 14,1 14,2 28,6 42,11 14,4 28,11 40,19 27,18 48,41 63,70 15,30 23,60 23,92 0,4 0,8 -1,12 0,4 0,7 -1,11 -1,8 -2,16 -4,24 -2,8 -5,15 -8,23 -16,37 -41,66 -75,86 -34,21 -70,31 -107,31 -3,0 -5,0 -8,-1l-7 0c-14,-1 -27,-3 -39,-6 -13,-4 -26,-9 -37,-15 -32,-17 -57,-40 -75,-71 -19,-32 -28,-64 -28,-98 0,-5 0,-10 0,-15 1,-4 1,-10 3,-15 2,-10 4,-20 8,-29 2,-11 6,-21 11,-30zm261 131c1,-4 2,-8 3,-12 1,-4 2,-8 2,-12 1,-3 1,-6 1,-8 0,-3 0,-5 0,-8 0,-2 0,-4 0,-7l0 -7c-2,-16 -7,-32 -15,-47 -8,-15 -19,-27 -33,-36 -4,-1 -8,-3 -11,-4 -4,-2 -8,-3 -12,-4 -4,-1 -7,-2 -11,-2 -4,-1 -8,-1 -12,-1 -19,0 -37,6 -53,18 -17,13 -29,29 -35,49l-1 3 0 2c-1,4 -2,8 -3,11 -1,4 -1,7 -2,11l-1 8 0 12c0,1 0,2 0,4 1,20 8,39 18,57 12,18 28,30 47,36l7 2c3,1 5,1 8,1l7 1 6 0c21,0 39,-5 55,-17 16,-13 28,-29 35,-50zm-406 106c-17,12 -37,21 -58,25 -21,5 -42,8 -64,9 -6,0 -12,0 -18,0l-117 0 0 -365 124 0c5,0 11,0 17,0 21,1 41,4 61,8 20,5 39,14 56,26 21,14 38,34 50,59 12,25 19,50 20,75 0,3 0,5 0,7l0 15c0,27 -7,53 -19,78 -12,25 -29,47 -52,63zm-160 -48c1,0 3,0 4,1l4 0c1,0 3,0 4,0l15 0c4,0 8,-1 12,-1 10,-1 20,-2 29,-5 9,-2 18,-7 26,-12 12,-9 21,-20 27,-35 6,-16 9,-31 9,-48l0 -4c0,-2 0,-3 0,-5 -1,-14 -5,-28 -11,-42 -6,-13 -14,-24 -25,-32 -8,-7 -17,-11 -27,-13 -10,-3 -20,-4 -30,-4l-37 0 0 200zm-394 82l0 -365 224 0 0 79 -126 0 0 64 118 0 0 78 -118 0 0 62 125 0 0 82 -223 0zm-294 -117c1,0 1,0 1,0 0,0 1,0 1,1 10,11 22,22 35,32 13,9 28,15 45,15 0,0 1,0 1,1l1 0c1,0 1,0 1,0l7 0c2,0 3,-1 5,-1 6,-1 12,-3 17,-7 6,-3 10,-7 13,-12l1 -3 1 -2c1,-3 2,-5 2,-8 0,-2 0,-4 0,-6 0,-10 -4,-19 -14,-26 -8,-7 -18,-13 -28,-17 -4,-1 -8,-2 -12,-3 -3,-1 -7,-2 -11,-3l-1 0c0,-1 -1,-1 -1,-1 -19,-4 -36,-11 -53,-21 -16,-11 -27,-25 -34,-44 -1,-4 -2,-8 -3,-12 -1,-4 -2,-9 -2,-13 0,-1 0,-2 0,-3l0 -14c1,-3 1,-6 2,-10 1,-7 3,-15 6,-22 2,-8 6,-15 10,-21 12,-20 28,-35 47,-43 19,-9 40,-14 61,-14 5,0 10,1 15,1 5,1 10,1 16,2 14,2 27,6 40,11 14,5 26,12 38,19l-31 70c-11,-7 -21,-14 -33,-20 -11,-6 -24,-8 -37,-8l-4 0c-9,1 -17,5 -25,12 -7,6 -11,13 -11,21l0 3c0,1 1,3 1,4 1,2 2,5 4,7 2,3 4,5 6,7 5,3 11,7 19,9 8,3 16,6 25,8 7,2 14,4 21,6 7,2 13,3 17,5 22,7 38,20 49,38 11,18 16,37 17,57l0 3c0,2 0,4 -1,6l0 7c-2,20 -9,39 -19,57 -10,17 -24,31 -42,41 -7,3 -13,6 -20,8 -7,2 -14,3 -21,5 -6,1 -11,2 -17,2 -6,1 -11,1 -17,1l-7 0c-23,-1 -46,-5 -68,-14 -22,-10 -42,-23 -59,-38l46 -73zm1687 726c0,-2 1,-3 1,-4 1,-2 2,-3 3,-4 1,-1 2,-2 4,-3 1,-1 3,-1 5,-1 3,0 5,0 7,1 2,1 4,2 5,4 1,1 2,3 3,5 1,1 1,3 1,6 0,4 -1,8 -2,12 -2,3 -4,7 -7,9 -1,2 -2,3 -4,4 -1,1 -3,2 -4,2 -2,1 -3,2 -4,2 0,1 -1,1 -2,1l-7 -10c1,0 3,-1 4,-2 2,0 3,-1 5,-2 1,-1 2,-3 3,-4 1,-2 2,-3 2,-5 -3,0 -6,-1 -9,-3 -3,-2 -4,-4 -4,-8zm39 0c0,-2 0,-3 1,-4 0,-2 1,-3 2,-4 1,-1 3,-2 4,-3 2,-1 4,-1 6,-1 2,0 4,0 6,1 2,1 4,2 6,4 1,1 2,3 3,5 0,1 1,3 1,6 0,4 -1,8 -3,12 -1,3 -3,7 -6,9 -2,2 -3,3 -4,4 -2,1 -3,2 -5,2 -1,1 -2,2 -3,2 -1,1 -1,1 -2,1l-7 -10c1,0 3,-1 4,-2 2,0 3,-1 5,-2 1,-1 2,-3 3,-4 1,-2 2,-3 2,-5 -3,0 -6,-1 -9,-3 -3,-2 -4,-4 -4,-8zm-1307 -290c0,2 0,3 -1,5 0,1 -1,2 -2,3 -3,3 -6,4 -10,4 -2,0 -4,0 -6,-1 -2,-1 -4,-2 -5,-4 -2,-1 -3,-3 -3,-4 -1,-2 -1,-4 -1,-7 0,-4 1,-8 2,-12 2,-3 3,-7 6,-9 2,-2 3,-3 4,-4 2,-1 3,-2 5,-2 1,-1 2,-2 3,-2 1,-1 2,-1 2,-1l7 10c-2,0 -3,1 -4,2 -2,0 -3,1 -5,2 -1,1 -2,3 -3,4 -1,2 -2,3 -2,5 4,0 6,1 9,3 3,2 4,5 4,8zm-38 0c0,3 -1,6 -4,8 -1,1 -2,2 -4,3 -1,1 -3,1 -5,1 -2,0 -5,0 -7,-1 -2,-1 -4,-2 -5,-4 -1,-1 -2,-3 -3,-4 0,-2 -1,-4 -1,-7 0,-4 1,-8 3,-12 1,-3 3,-7 6,-9 1,-1 2,-3 4,-4 1,-1 3,-2 4,-2 2,-1 3,-2 4,-2 1,-1 1,-1 2,-1l6 10c-1,0 -2,1 -4,2 -1,0 -3,1 -4,2 -2,1 -3,3 -4,4 -1,2 -1,3 -1,5 3,0 6,1 8,3 3,2 5,5 5,8zm1211 281l19 0 58 -102 -19 0 -58 102zm0 7c-6,0 -11,5 -11,11 0,6 4,11 11,11 6,0 11,-4 11,-11 0,-6 -5,-11 -11,-11zm-131 -27l6 -9c21,-30 36,-22 29,-10l-9 15c-5,9 -22,16 -26,4zm124 15c-1,-3 -4,-6 -7,-7l-1 2c-7,8 -14,14 -22,20 6,-18 4,-45 16,-69l-14 -8c-8,11 -25,35 -41,55l-2 2c-13,16 -27,28 -34,28 -4,0 -8,-4 -8,-12l0 -8c13,1 27,-7 35,-23l5 -8c17,-30 -11,-40 -30,-22l27 -46 -19 0 -53 92c-1,-1 -2,-1 -4,-2l-1 1c-14,16 -31,28 -44,28 -12,0 -19,-7 -10,-22l19 -33c11,-19 30,-16 19,3l-3 5 16 0 2 -5c10,-17 1,-30 -15,-30 -15,0 -27,8 -35,22l-18 32c-1,0 -1,-1 -1,-1l-1 2c-14,16 -27,28 -35,28 -4,0 -6,-3 -2,-11l40 -69 -19 0 -33 58c-14,12 -25,20 -29,18 -4,-2 0,-9 3,-13l36 -64 -18 0 -36 63c-4,4 -12,7 -16,9 6,-17 4,-44 16,-69l-14 -7c-8,10 -51,68 -67,87 1,3 4,5 7,7 10,-13 46,-58 52,-67 -7,19 -3,54 -21,54 -6,0 -9,-7 -9,-7l-12 6c0,0 4,15 21,15 2,0 3,0 5,0l1 0c9,-2 22,-6 31,-12 0,7 5,12 13,12 10,0 21,-9 30,-18 -2,10 4,18 16,18 11,0 25,-9 37,-22 0,13 9,22 25,22 15,0 30,-8 43,-20l-11 19 19 0 21 -37 0 15c0,15 3,24 19,24 15,0 33,-17 48,-35 10,-12 20,-25 27,-34 -8,19 -4,54 -22,54 -6,0 -8,-7 -8,-7l-12 6c0,0 3,15 20,15 2,0 3,0 5,0l1 0c20,-3 38,-18 52,-34zm-566 -6l-1 0c-6,0 -11,5 -11,12 0,2 1,4 2,6l0 0c-9,15 -30,13 -19,-7l14 -25 9 -15c14,-22 31,-13 20,6l-14 23zm-125 70c-4,7 -11,6 -11,1 0,-5 5,-10 19,-15l-8 14zm-142 -68c-12,18 -23,26 -31,26 -3,0 -6,-3 -2,-10l27 -45c10,-18 30,-13 20,4l-14 25zm-60 -72c6,-10 12,-14 17,-14 7,0 10,4 10,11 0,17 -21,53 -50,49l-4 0 27 -46zm459 69l-2 2c-13,16 -27,28 -34,28 -4,0 -7,-3 -2,-11l26 -47c8,-14 1,-24 -10,-24 -8,0 -16,4 -25,14l7 -13 -19 0 -30 52c-1,0 -2,-1 -3,-1l-1 1c-9,10 -19,14 -28,14l17 -30c12,-20 1,-38 -16,-38 -15,0 -26,6 -36,24l-10 16 -8 14c0,-1 -1,-1 -1,-1l-2 1c-15,18 -28,29 -43,36l51 -88 -19 0 -33 58c-14,13 -25,20 -29,19 -4,-2 0,-9 3,-13l36 -64 -19 0 -29 52c-1,-1 -1,-1 -2,-1l-1 1c-13,16 -27,28 -35,28 -4,0 -6,-3 -2,-10l27 -47c8,-15 0,-25 -10,-25 -8,0 -16,5 -26,14l7 -12 -18 0 -30 51c-1,0 -1,0 -2,-1l-1 2c-14,16 -27,28 -35,28 -4,0 -6,-3 -2,-10l30 -53 -10 0c0,-8 -8,-19 -20,-19 -10,0 -24,8 -32,22l-19 33c-2,-1 -3,-2 -4,-3l-2 2c-13,16 -24,28 -42,28 -13,0 -21,-13 -10,-32l6 -9c3,0 7,1 10,1 20,0 43,-11 57,-36 6,-10 8,-18 8,-25 0,-17 -11,-28 -25,-28 -10,0 -22,7 -31,22l-29 50c-11,-6 -16,-17 -16,-27 0,-8 4,-17 11,-24l-6 -11c-13,10 -19,23 -19,35 0,15 9,29 24,37l-5 10c-14,23 -6,48 20,48 21,0 30,-10 43,-22 -4,12 2,22 15,22 7,0 17,-5 26,-13 1,8 6,13 16,13 9,0 19,-6 28,-14l-7 12 19 0 29 -50c28,-36 41,-31 33,-17l-24 42c-8,13 -3,26 12,26 10,0 22,-7 32,-17 -2,11 2,17 12,17 9,0 19,-7 27,-15l-10 18c-25,8 -41,18 -41,32 0,18 28,22 41,-1l14 -25c16,-5 32,-15 47,-30 -2,26 32,32 53,5l4 0c7,0 16,-3 24,-7l-12 21 19 0 28 -50c29,-35 42,-31 34,-17l-25 42c-8,14 -2,27 13,27 15,0 33,-17 49,-35 -1,0 -4,-3 -6,-4zm585 -176c-11,19 -22,28 -30,28 -4,0 -7,-3 -2,-11l26 -45c10,-18 30,-13 21,4l-15 24zm-178 1c-12,18 -23,27 -31,27 -4,0 -6,-3 -2,-11l27 -45c10,-18 30,-13 20,4l-14 25zm-197 69c-4,6 -11,5 -11,1 0,-5 5,-11 19,-16l-8 15zm39 -141c5,-10 12,-14 17,-14 29,0 7,71 -40,60l-4 0 27 -46zm384 69l-2 2c-13,16 -26,28 -34,28 -4,0 -7,-3 -2,-10l63 -109 -19 0 -27 47c-4,-5 -10,-10 -18,-10 -10,0 -24,8 -32,22l-18 31c-1,0 -1,0 -1,0l-2 1c-13,16 -24,29 -33,29 -4,0 -6,-3 -2,-11l27 -47c8,-15 1,-24 -9,-24 -8,0 -17,4 -26,13l7 -12 -19 0 -30 51c0,0 -1,0 -2,-1l-1 2c-13,16 -27,28 -35,28 -4,0 -6,-3 -2,-10l31 -53 -11 0c1,-8 -7,-19 -20,-19 -9,0 -24,8 -32,22l-18 31 -1 1c-13,16 -29,28 -36,28 -4,0 -7,-3 -2,-10l18 -33c7,-11 4,-18 -2,-25l-11 -12c-2,-4 -2,-8 1,-11l-9 -11c-11,10 -12,21 -5,29l1 2c-8,12 -19,28 -31,42 0,0 1,1 1,1 -15,18 -29,30 -43,36l24 -41 -19 0 -2 4c-10,17 -21,30 -36,30 -12,0 -14,-13 -3,-32l5 -9c3,0 7,1 10,1 66,0 99,-89 40,-89 -10,0 -22,7 -30,21l-29 50c-11,-6 -17,-16 -17,-26 0,-9 4,-18 12,-24l-6 -11c-14,9 -20,22 -20,35 0,14 9,29 24,37l-5 10c-14,22 -11,47 16,47 7,0 14,-2 20,-5l-5 8c-25,8 -41,18 -41,32 0,18 27,22 41,-1l14 -25c19,-6 39,-19 59,-43 -1,-1 -1,-1 -1,-2 8,-10 15,-19 30,-38l2 3c2,3 3,7 1,10l-20 34c-8,14 -2,27 13,27 9,0 21,-6 32,-15 0,9 5,15 16,15 7,0 17,-5 26,-12 1,7 6,12 16,12 9,0 19,-5 28,-14l-7 12 19 0 29 -50c28,-35 41,-31 33,-17l-24 42c-8,14 -3,26 12,26 10,0 19,-6 30,-16 -1,10 5,16 16,16 8,0 17,-4 26,-12 1,8 6,12 16,12 16,0 33,-16 49,-34 -3,-2 -6,-5 -8,-6zm-555 -26c11,-18 30,-15 19,4l-3 5c-8,15 -21,14 -28,12l12 -21zm-15 67c22,0 42,-16 58,-34 -1,-3 -4,-6 -7,-7l-1 2c-14,16 -31,28 -44,28 -12,0 -19,-7 -10,-22l2 -4c12,5 34,3 48,-21l3 -5c10,-17 0,-30 -15,-30 -15,0 -27,8 -35,22l-18 31c0,0 -1,0 -1,-1l-1 2c-14,16 -27,28 -35,28 -4,0 -6,-3 -2,-10l27 -48c8,-14 0,-24 -10,-24 -8,0 -17,5 -26,14l29 -51 -18 0 -53 91c-1,-1 -2,-1 -2,-2l-2 2c-13,16 -26,28 -34,28 -4,0 -7,-3 -2,-10l40 -70 15 0 5 -9 -15 0 18 -30 -19 0 -18 30 -16 0 -6 9 17 0 -38 65c-8,14 -2,27 13,27 10,0 19,-6 29,-15l-7 13 19 0 28 -49c29,-36 41,-32 33,-18l-24 42c-8,14 -2,26 13,26 11,0 24,-8 36,-20 1,12 11,20 26,20zm-629 -67c11,-18 29,-15 18,4l-2 5c-9,15 -21,14 -28,12l12 -21zm114 46l26 -46c10,-17 30,-13 21,4l-15 26c-11,18 -22,26 -30,26 -4,0 -7,-3 -2,-10zm266 -46c11,-18 30,-15 19,4l-2 5c-9,15 -21,14 -28,12l11 -21zm-285 47c-3,11 3,20 15,20 8,0 17,-5 26,-12 1,7 6,12 16,12 10,0 21,-6 32,-16 -2,10 2,16 12,16 10,0 21,-9 30,-17 -2,10 4,17 16,17 15,0 33,-16 49,-34 0,0 -1,-1 -1,-1 10,-12 19,-25 26,-34 -8,20 -4,55 -22,55 -6,0 -8,-7 -8,-7l-12 6c0,0 3,15 20,15 2,0 3,0 5,-1l1 0c14,-2 27,-10 39,-20 0,12 10,21 25,21 21,0 42,-16 58,-35 -2,-2 -5,-5 -7,-6l-1 1c-14,16 -31,29 -44,29 -12,0 -19,-8 -10,-23l2 -3c12,5 34,2 48,-22l3 -4c9,-18 0,-30 -15,-30 -16,0 -27,7 -35,21l-19 31 0 0 -2 2c-6,8 -14,14 -22,20 6,-18 5,-45 16,-69l-13 -7c-8,10 -25,35 -42,54l1 1 -1 1c-13,16 -27,28 -34,28 -4,0 -7,-3 -2,-10l40 -70 -19 0 -33 58c-15,13 -25,20 -29,18 -4,-2 0,-9 3,-13l36 -63 -19 0 -29 51c-1,-1 -1,-1 -2,-1l-1 1c-14,16 -27,29 -35,29 -4,0 -6,-3 -2,-11l30 -53 -10 0c0,-8 -7,-18 -20,-18 -10,0 -24,7 -32,21l-19 33c-1,-1 -2,-2 -3,-2l-1 1c-13,16 -29,29 -42,29 -11,0 -18,-8 -10,-23l19 -33c11,-19 30,-16 19,4l-2 4 15 0 2 -4c10,-18 1,-30 -14,-30 -16,0 -26,7 -34,21l-18 32c-1,-1 -1,-1 -2,-1l-1 1c-14,16 -29,29 -43,29 -11,0 -18,-8 -10,-23l2 -3c12,5 35,2 49,-22l2 -4c10,-18 1,-30 -15,-30 -15,0 -27,7 -35,21l-19 34c-12,20 -2,38 20,38 16,0 30,-10 43,-23 0,13 10,23 26,23 16,0 30,-8 43,-20zm-182 -69l15 -26c14,-23 31,-10 22,8 -8,14 -18,18 -37,18zm-21 85c-11,0 -19,-2 -26,-6 3,-4 6,-8 9,-13l32 -55 5 1c43,9 26,73 -20,73zm47 -76c37,-13 40,-60 3,-60 -10,0 -22,8 -30,22l-51 87c-2,4 -4,7 -7,10 -13,-18 -9,-44 9,-56l-8 -9c-39,25 -27,97 38,97 56,0 81,-67 46,-91z"/>
 </g>
</svg>
